<?xml version="1.0" encoding="utf-8" standalone="no"?>
<!DOCTYPE svg PUBLIC "-//W3C//DTD SVG 1.1//EN"
  "http://www.w3.org/Graphics/SVG/1.1/DTD/svg11.dtd">
<svg xmlns:xlink="http://www.w3.org/1999/xlink" width="413.302812pt" height="330.545437pt" viewBox="0 0 413.302812 330.545437" xmlns="http://www.w3.org/2000/svg" version="1.1">
 <metadata>
  <rdf:RDF xmlns:dc="http://purl.org/dc/elements/1.1/" xmlns:cc="http://creativecommons.org/ns#" xmlns:rdf="http://www.w3.org/1999/02/22-rdf-syntax-ns#">
   <cc:Work>
    <dc:type rdf:resource="http://purl.org/dc/dcmitype/StillImage"/>
    <dc:date>2024-11-03T14:01:52.820629</dc:date>
    <dc:format>image/svg+xml</dc:format>
    <dc:creator>
     <cc:Agent>
      <dc:title>Matplotlib v3.8.4, https://matplotlib.org/</dc:title>
     </cc:Agent>
    </dc:creator>
   </cc:Work>
  </rdf:RDF>
 </metadata>
 <defs>
  <style type="text/css">*{stroke-linejoin: round; stroke-linecap: butt}</style>
 </defs>
 <g id="figure_1">
  <g id="patch_1">
   <path d="M 0 330.545437 
L 413.302812 330.545437 
L 413.302812 0 
L 0 0 
z
" style="fill: #ffffff"/>
  </g>
  <g id="axes_1">
   <g id="patch_2">
    <path d="M 48.982813 292.989187 
L 406.102813 292.989187 
L 406.102813 26.877187 
L 48.982813 26.877187 
z
" style="fill: #eaeaf2"/>
   </g>
   <g id="matplotlib.axis_1">
    <g id="xtick_1">
     <g id="line2d_1">
      <path d="M 69.837741 292.989187 
L 69.837741 26.877187 
" clip-path="url(#p98715559fb)" style="fill: none; stroke: #ffffff; stroke-width: 0.8; stroke-linecap: round"/>
     </g>
     <g id="text_1">
      <!-- −20 -->
      <g style="fill: #262626" transform="translate(59.285397 307.587625) scale(0.1 -0.1)">
       <defs>
        <path id="DejaVuSans-2212" d="M 678 2272 
L 4684 2272 
L 4684 1741 
L 678 1741 
L 678 2272 
z
" transform="scale(0.015625)"/>
        <path id="DejaVuSans-32" d="M 1228 531 
L 3431 531 
L 3431 0 
L 469 0 
L 469 531 
Q 828 903 1448 1529 
Q 2069 2156 2228 2338 
Q 2531 2678 2651 2914 
Q 2772 3150 2772 3378 
Q 2772 3750 2511 3984 
Q 2250 4219 1831 4219 
Q 1534 4219 1204 4116 
Q 875 4013 500 3803 
L 500 4441 
Q 881 4594 1212 4672 
Q 1544 4750 1819 4750 
Q 2544 4750 2975 4387 
Q 3406 4025 3406 3419 
Q 3406 3131 3298 2873 
Q 3191 2616 2906 2266 
Q 2828 2175 2409 1742 
Q 1991 1309 1228 531 
z
" transform="scale(0.015625)"/>
        <path id="DejaVuSans-30" d="M 2034 4250 
Q 1547 4250 1301 3770 
Q 1056 3291 1056 2328 
Q 1056 1369 1301 889 
Q 1547 409 2034 409 
Q 2525 409 2770 889 
Q 3016 1369 3016 2328 
Q 3016 3291 2770 3770 
Q 2525 4250 2034 4250 
z
M 2034 4750 
Q 2819 4750 3233 4129 
Q 3647 3509 3647 2328 
Q 3647 1150 3233 529 
Q 2819 -91 2034 -91 
Q 1250 -91 836 529 
Q 422 1150 422 2328 
Q 422 3509 836 4129 
Q 1250 4750 2034 4750 
z
" transform="scale(0.015625)"/>
       </defs>
       <use xlink:href="#DejaVuSans-2212"/>
       <use xlink:href="#DejaVuSans-32" x="83.789062"/>
       <use xlink:href="#DejaVuSans-30" x="147.412109"/>
      </g>
     </g>
    </g>
    <g id="xtick_2">
     <g id="line2d_2">
      <path d="M 133.374901 292.989187 
L 133.374901 26.877187 
" clip-path="url(#p98715559fb)" style="fill: none; stroke: #ffffff; stroke-width: 0.8; stroke-linecap: round"/>
     </g>
     <g id="text_2">
      <!-- −10 -->
      <g style="fill: #262626" transform="translate(122.822558 307.587625) scale(0.1 -0.1)">
       <defs>
        <path id="DejaVuSans-31" d="M 794 531 
L 1825 531 
L 1825 4091 
L 703 3866 
L 703 4441 
L 1819 4666 
L 2450 4666 
L 2450 531 
L 3481 531 
L 3481 0 
L 794 0 
L 794 531 
z
" transform="scale(0.015625)"/>
       </defs>
       <use xlink:href="#DejaVuSans-2212"/>
       <use xlink:href="#DejaVuSans-31" x="83.789062"/>
       <use xlink:href="#DejaVuSans-30" x="147.412109"/>
      </g>
     </g>
    </g>
    <g id="xtick_3">
     <g id="line2d_3">
      <path d="M 196.912062 292.989187 
L 196.912062 26.877187 
" clip-path="url(#p98715559fb)" style="fill: none; stroke: #ffffff; stroke-width: 0.8; stroke-linecap: round"/>
     </g>
     <g id="text_3">
      <!-- 0 -->
      <g style="fill: #262626" transform="translate(193.730812 307.587625) scale(0.1 -0.1)">
       <use xlink:href="#DejaVuSans-30"/>
      </g>
     </g>
    </g>
    <g id="xtick_4">
     <g id="line2d_4">
      <path d="M 260.449222 292.989187 
L 260.449222 26.877187 
" clip-path="url(#p98715559fb)" style="fill: none; stroke: #ffffff; stroke-width: 0.8; stroke-linecap: round"/>
     </g>
     <g id="text_4">
      <!-- 10 -->
      <g style="fill: #262626" transform="translate(254.086722 307.587625) scale(0.1 -0.1)">
       <use xlink:href="#DejaVuSans-31"/>
       <use xlink:href="#DejaVuSans-30" x="63.623047"/>
      </g>
     </g>
    </g>
    <g id="xtick_5">
     <g id="line2d_5">
      <path d="M 323.986383 292.989187 
L 323.986383 26.877187 
" clip-path="url(#p98715559fb)" style="fill: none; stroke: #ffffff; stroke-width: 0.8; stroke-linecap: round"/>
     </g>
     <g id="text_5">
      <!-- 20 -->
      <g style="fill: #262626" transform="translate(317.623883 307.587625) scale(0.1 -0.1)">
       <use xlink:href="#DejaVuSans-32"/>
       <use xlink:href="#DejaVuSans-30" x="63.623047"/>
      </g>
     </g>
    </g>
    <g id="xtick_6">
     <g id="line2d_6">
      <path d="M 387.523543 292.989187 
L 387.523543 26.877187 
" clip-path="url(#p98715559fb)" style="fill: none; stroke: #ffffff; stroke-width: 0.8; stroke-linecap: round"/>
     </g>
     <g id="text_6">
      <!-- 30 -->
      <g style="fill: #262626" transform="translate(381.161043 307.587625) scale(0.1 -0.1)">
       <defs>
        <path id="DejaVuSans-33" d="M 2597 2516 
Q 3050 2419 3304 2112 
Q 3559 1806 3559 1356 
Q 3559 666 3084 287 
Q 2609 -91 1734 -91 
Q 1441 -91 1130 -33 
Q 819 25 488 141 
L 488 750 
Q 750 597 1062 519 
Q 1375 441 1716 441 
Q 2309 441 2620 675 
Q 2931 909 2931 1356 
Q 2931 1769 2642 2001 
Q 2353 2234 1838 2234 
L 1294 2234 
L 1294 2753 
L 1863 2753 
Q 2328 2753 2575 2939 
Q 2822 3125 2822 3475 
Q 2822 3834 2567 4026 
Q 2313 4219 1838 4219 
Q 1578 4219 1281 4162 
Q 984 4106 628 3988 
L 628 4550 
Q 988 4650 1302 4700 
Q 1616 4750 1894 4750 
Q 2613 4750 3031 4423 
Q 3450 4097 3450 3541 
Q 3450 3153 3228 2886 
Q 3006 2619 2597 2516 
z
" transform="scale(0.015625)"/>
       </defs>
       <use xlink:href="#DejaVuSans-33"/>
       <use xlink:href="#DejaVuSans-30" x="63.623047"/>
      </g>
     </g>
    </g>
    <g id="text_7">
     <!-- x -->
     <g style="fill: #262626" transform="translate(224.583438 321.26575) scale(0.1 -0.1)">
      <defs>
       <path id="DejaVuSans-78" d="M 3513 3500 
L 2247 1797 
L 3578 0 
L 2900 0 
L 1881 1375 
L 863 0 
L 184 0 
L 1544 1831 
L 300 3500 
L 978 3500 
L 1906 2253 
L 2834 3500 
L 3513 3500 
z
" transform="scale(0.015625)"/>
      </defs>
      <use xlink:href="#DejaVuSans-78"/>
     </g>
    </g>
   </g>
   <g id="matplotlib.axis_2">
    <g id="ytick_1">
     <g id="line2d_7">
      <path d="M 48.982813 271.376679 
L 406.102813 271.376679 
" clip-path="url(#p98715559fb)" style="fill: none; stroke: #ffffff; stroke-width: 0.8; stroke-linecap: round"/>
     </g>
     <g id="text_8">
      <!-- −25 -->
      <g style="fill: #262626" transform="translate(20.878125 275.175898) scale(0.1 -0.1)">
       <defs>
        <path id="DejaVuSans-35" d="M 691 4666 
L 3169 4666 
L 3169 4134 
L 1269 4134 
L 1269 2991 
Q 1406 3038 1543 3061 
Q 1681 3084 1819 3084 
Q 2600 3084 3056 2656 
Q 3513 2228 3513 1497 
Q 3513 744 3044 326 
Q 2575 -91 1722 -91 
Q 1428 -91 1123 -41 
Q 819 9 494 109 
L 494 744 
Q 775 591 1075 516 
Q 1375 441 1709 441 
Q 2250 441 2565 725 
Q 2881 1009 2881 1497 
Q 2881 1984 2565 2268 
Q 2250 2553 1709 2553 
Q 1456 2553 1204 2497 
Q 953 2441 691 2322 
L 691 4666 
z
" transform="scale(0.015625)"/>
       </defs>
       <use xlink:href="#DejaVuSans-2212"/>
       <use xlink:href="#DejaVuSans-32" x="83.789062"/>
       <use xlink:href="#DejaVuSans-35" x="147.412109"/>
      </g>
     </g>
    </g>
    <g id="ytick_2">
     <g id="line2d_8">
      <path d="M 48.982813 241.695802 
L 406.102813 241.695802 
" clip-path="url(#p98715559fb)" style="fill: none; stroke: #ffffff; stroke-width: 0.8; stroke-linecap: round"/>
     </g>
     <g id="text_9">
      <!-- −20 -->
      <g style="fill: #262626" transform="translate(20.878125 245.495021) scale(0.1 -0.1)">
       <use xlink:href="#DejaVuSans-2212"/>
       <use xlink:href="#DejaVuSans-32" x="83.789062"/>
       <use xlink:href="#DejaVuSans-30" x="147.412109"/>
      </g>
     </g>
    </g>
    <g id="ytick_3">
     <g id="line2d_9">
      <path d="M 48.982813 212.014925 
L 406.102813 212.014925 
" clip-path="url(#p98715559fb)" style="fill: none; stroke: #ffffff; stroke-width: 0.8; stroke-linecap: round"/>
     </g>
     <g id="text_10">
      <!-- −15 -->
      <g style="fill: #262626" transform="translate(20.878125 215.814143) scale(0.1 -0.1)">
       <use xlink:href="#DejaVuSans-2212"/>
       <use xlink:href="#DejaVuSans-31" x="83.789062"/>
       <use xlink:href="#DejaVuSans-35" x="147.412109"/>
      </g>
     </g>
    </g>
    <g id="ytick_4">
     <g id="line2d_10">
      <path d="M 48.982813 182.334047 
L 406.102813 182.334047 
" clip-path="url(#p98715559fb)" style="fill: none; stroke: #ffffff; stroke-width: 0.8; stroke-linecap: round"/>
     </g>
     <g id="text_11">
      <!-- −10 -->
      <g style="fill: #262626" transform="translate(20.878125 186.133266) scale(0.1 -0.1)">
       <use xlink:href="#DejaVuSans-2212"/>
       <use xlink:href="#DejaVuSans-31" x="83.789062"/>
       <use xlink:href="#DejaVuSans-30" x="147.412109"/>
      </g>
     </g>
    </g>
    <g id="ytick_5">
     <g id="line2d_11">
      <path d="M 48.982813 152.65317 
L 406.102813 152.65317 
" clip-path="url(#p98715559fb)" style="fill: none; stroke: #ffffff; stroke-width: 0.8; stroke-linecap: round"/>
     </g>
     <g id="text_12">
      <!-- −5 -->
      <g style="fill: #262626" transform="translate(27.240625 156.452389) scale(0.1 -0.1)">
       <use xlink:href="#DejaVuSans-2212"/>
       <use xlink:href="#DejaVuSans-35" x="83.789062"/>
      </g>
     </g>
    </g>
    <g id="ytick_6">
     <g id="line2d_12">
      <path d="M 48.982813 122.972293 
L 406.102813 122.972293 
" clip-path="url(#p98715559fb)" style="fill: none; stroke: #ffffff; stroke-width: 0.8; stroke-linecap: round"/>
     </g>
     <g id="text_13">
      <!-- 0 -->
      <g style="fill: #262626" transform="translate(35.620313 126.771512) scale(0.1 -0.1)">
       <use xlink:href="#DejaVuSans-30"/>
      </g>
     </g>
    </g>
    <g id="ytick_7">
     <g id="line2d_13">
      <path d="M 48.982813 93.291416 
L 406.102813 93.291416 
" clip-path="url(#p98715559fb)" style="fill: none; stroke: #ffffff; stroke-width: 0.8; stroke-linecap: round"/>
     </g>
     <g id="text_14">
      <!-- 5 -->
      <g style="fill: #262626" transform="translate(35.620313 97.090634) scale(0.1 -0.1)">
       <use xlink:href="#DejaVuSans-35"/>
      </g>
     </g>
    </g>
    <g id="ytick_8">
     <g id="line2d_14">
      <path d="M 48.982813 63.610538 
L 406.102813 63.610538 
" clip-path="url(#p98715559fb)" style="fill: none; stroke: #ffffff; stroke-width: 0.8; stroke-linecap: round"/>
     </g>
     <g id="text_15">
      <!-- 10 -->
      <g style="fill: #262626" transform="translate(29.257813 67.409757) scale(0.1 -0.1)">
       <use xlink:href="#DejaVuSans-31"/>
       <use xlink:href="#DejaVuSans-30" x="63.623047"/>
      </g>
     </g>
    </g>
    <g id="ytick_9">
     <g id="line2d_15">
      <path d="M 48.982813 33.929661 
L 406.102813 33.929661 
" clip-path="url(#p98715559fb)" style="fill: none; stroke: #ffffff; stroke-width: 0.8; stroke-linecap: round"/>
     </g>
     <g id="text_16">
      <!-- 15 -->
      <g style="fill: #262626" transform="translate(29.257813 37.72888) scale(0.1 -0.1)">
       <use xlink:href="#DejaVuSans-31"/>
       <use xlink:href="#DejaVuSans-35" x="63.623047"/>
      </g>
     </g>
    </g>
    <g id="text_17">
     <!-- y -->
     <g style="fill: #262626" transform="translate(14.798438 162.892562) rotate(-90) scale(0.1 -0.1)">
      <defs>
       <path id="DejaVuSans-79" d="M 2059 -325 
Q 1816 -950 1584 -1140 
Q 1353 -1331 966 -1331 
L 506 -1331 
L 506 -850 
L 844 -850 
Q 1081 -850 1212 -737 
Q 1344 -625 1503 -206 
L 1606 56 
L 191 3500 
L 800 3500 
L 1894 763 
L 2988 3500 
L 3597 3500 
L 2059 -325 
z
" transform="scale(0.015625)"/>
      </defs>
      <use xlink:href="#DejaVuSans-79"/>
     </g>
    </g>
   </g>
   <g id="PathCollection_1">
    <defs>
     <path id="m25a958d5ad" d="M 0 3 
C 0.795609 3 1.55874 2.683901 2.12132 2.12132 
C 2.683901 1.55874 3 0.795609 3 0 
C 3 -0.795609 2.683901 -1.55874 2.12132 -2.12132 
C 1.55874 -2.683901 0.795609 -3 0 -3 
C -0.795609 -3 -1.55874 -2.683901 -2.12132 -2.12132 
C -2.683901 -1.55874 -3 -0.795609 -3 0 
C -3 0.795609 -2.683901 1.55874 -2.12132 2.12132 
C -1.55874 2.683901 -0.795609 3 0 3 
z
" style="stroke: #1f77b4"/>
    </defs>
    <g clip-path="url(#p98715559fb)">
     <use xlink:href="#m25a958d5ad" x="377.740209" y="133.262576" style="fill: #1f77b4; stroke: #1f77b4"/>
     <use xlink:href="#m25a958d5ad" x="362.690828" y="121.226099" style="fill: #1f77b4; stroke: #1f77b4"/>
     <use xlink:href="#m25a958d5ad" x="356.67142" y="113.278423" style="fill: #1f77b4; stroke: #1f77b4"/>
     <use xlink:href="#m25a958d5ad" x="361.911301" y="114.234376" style="fill: #1f77b4; stroke: #1f77b4"/>
     <use xlink:href="#m25a958d5ad" x="384.968293" y="134.681451" style="fill: #1f77b4; stroke: #1f77b4"/>
     <use xlink:href="#m25a958d5ad" x="315.178874" y="74.157217" style="fill: #1f77b4; stroke: #1f77b4"/>
     <use xlink:href="#m25a958d5ad" x="314.292097" y="78.229721" style="fill: #1f77b4; stroke: #1f77b4"/>
     <use xlink:href="#m25a958d5ad" x="303.995072" y="84.260866" style="fill: #1f77b4; stroke: #1f77b4"/>
     <use xlink:href="#m25a958d5ad" x="302.055454" y="80.608591" style="fill: #1f77b4; stroke: #1f77b4"/>
     <use xlink:href="#m25a958d5ad" x="308.000828" y="88.944143" style="fill: #1f77b4; stroke: #1f77b4"/>
     <use xlink:href="#m25a958d5ad" x="326.032574" y="84.44379" style="fill: #1f77b4; stroke: #1f77b4"/>
     <use xlink:href="#m25a958d5ad" x="366.220826" y="114.409099" style="fill: #1f77b4; stroke: #1f77b4"/>
     <use xlink:href="#m25a958d5ad" x="347.164404" y="106.996952" style="fill: #1f77b4; stroke: #1f77b4"/>
     <use xlink:href="#m25a958d5ad" x="307.747571" y="82.733265" style="fill: #1f77b4; stroke: #1f77b4"/>
     <use xlink:href="#m25a958d5ad" x="389.870085" y="144.617711" style="fill: #1f77b4; stroke: #1f77b4"/>
     <use xlink:href="#m25a958d5ad" x="355.701265" y="116.696496" style="fill: #1f77b4; stroke: #1f77b4"/>
     <use xlink:href="#m25a958d5ad" x="322.295756" y="104.120585" style="fill: #1f77b4; stroke: #1f77b4"/>
     <use xlink:href="#m25a958d5ad" x="373.871115" y="161.60653" style="fill: #1f77b4; stroke: #1f77b4"/>
     <use xlink:href="#m25a958d5ad" x="367.957758" y="128.137955" style="fill: #1f77b4; stroke: #1f77b4"/>
     <use xlink:href="#m25a958d5ad" x="349.682002" y="114.916682" style="fill: #1f77b4; stroke: #1f77b4"/>
     <use xlink:href="#m25a958d5ad" x="341.343041" y="93.459946" style="fill: #1f77b4; stroke: #1f77b4"/>
     <use xlink:href="#m25a958d5ad" x="332.239192" y="94.591188" style="fill: #1f77b4; stroke: #1f77b4"/>
     <use xlink:href="#m25a958d5ad" x="297.60989" y="79.270483" style="fill: #1f77b4; stroke: #1f77b4"/>
     <use xlink:href="#m25a958d5ad" x="304.254038" y="73.41965" style="fill: #1f77b4; stroke: #1f77b4"/>
     <use xlink:href="#m25a958d5ad" x="306.771066" y="77.578937" style="fill: #1f77b4; stroke: #1f77b4"/>
     <use xlink:href="#m25a958d5ad" x="314.092404" y="100.550587" style="fill: #1f77b4; stroke: #1f77b4"/>
     <use xlink:href="#m25a958d5ad" x="377.59282" y="127.412083" style="fill: #1f77b4; stroke: #1f77b4"/>
     <use xlink:href="#m25a958d5ad" x="385.381663" y="129.520552" style="fill: #1f77b4; stroke: #1f77b4"/>
     <use xlink:href="#m25a958d5ad" x="374.453821" y="126.302394" style="fill: #1f77b4; stroke: #1f77b4"/>
     <use xlink:href="#m25a958d5ad" x="331.726084" y="92.153004" style="fill: #1f77b4; stroke: #1f77b4"/>
     <use xlink:href="#m25a958d5ad" x="341.438961" y="87.120593" style="fill: #1f77b4; stroke: #1f77b4"/>
     <use xlink:href="#m25a958d5ad" x="341.849411" y="97.702741" style="fill: #1f77b4; stroke: #1f77b4"/>
     <use xlink:href="#m25a958d5ad" x="334.710763" y="86.116458" style="fill: #1f77b4; stroke: #1f77b4"/>
     <use xlink:href="#m25a958d5ad" x="328.760868" y="97.154479" style="fill: #1f77b4; stroke: #1f77b4"/>
     <use xlink:href="#m25a958d5ad" x="333.879514" y="100.575383" style="fill: #1f77b4; stroke: #1f77b4"/>
     <use xlink:href="#m25a958d5ad" x="374.882764" y="161.958364" style="fill: #1f77b4; stroke: #1f77b4"/>
     <use xlink:href="#m25a958d5ad" x="309.617773" y="97.483215" style="fill: #1f77b4; stroke: #1f77b4"/>
     <use xlink:href="#m25a958d5ad" x="241.123261" y="63.990273" style="fill: #1f77b4; stroke: #1f77b4"/>
     <use xlink:href="#m25a958d5ad" x="387.279266" y="141.101085" style="fill: #1f77b4; stroke: #1f77b4"/>
     <use xlink:href="#m25a958d5ad" x="297.283641" y="86.236784" style="fill: #1f77b4; stroke: #1f77b4"/>
     <use xlink:href="#m25a958d5ad" x="238.016029" y="66.338881" style="fill: #1f77b4; stroke: #1f77b4"/>
     <use xlink:href="#m25a958d5ad" x="389.399938" y="136.802871" style="fill: #1f77b4; stroke: #1f77b4"/>
     <use xlink:href="#m25a958d5ad" x="301.320415" y="91.63226" style="fill: #1f77b4; stroke: #1f77b4"/>
     <use xlink:href="#m25a958d5ad" x="232.882937" y="64.136496" style="fill: #1f77b4; stroke: #1f77b4"/>
    </g>
   </g>
   <g id="PathCollection_2">
    <defs>
     <path id="md195edd58c" d="M 0 3 
C 0.795609 3 1.55874 2.683901 2.12132 2.12132 
C 2.683901 1.55874 3 0.795609 3 0 
C 3 -0.795609 2.683901 -1.55874 2.12132 -2.12132 
C 1.55874 -2.683901 0.795609 -3 0 -3 
C -0.795609 -3 -1.55874 -2.683901 -2.12132 -2.12132 
C -2.683901 -1.55874 -3 -0.795609 -3 0 
C -3 0.795609 -2.683901 1.55874 -2.12132 2.12132 
C -1.55874 2.683901 -0.795609 3 0 3 
z
" style="stroke: #ff7f0e"/>
    </defs>
    <g clip-path="url(#p98715559fb)">
     <use xlink:href="#md195edd58c" x="245.253217" y="85.22131" style="fill: #ff7f0e; stroke: #ff7f0e"/>
     <use xlink:href="#md195edd58c" x="236.49385" y="86.208234" style="fill: #ff7f0e; stroke: #ff7f0e"/>
     <use xlink:href="#md195edd58c" x="163.929819" y="74.700463" style="fill: #ff7f0e; stroke: #ff7f0e"/>
     <use xlink:href="#md195edd58c" x="153.023573" y="54.774951" style="fill: #ff7f0e; stroke: #ff7f0e"/>
     <use xlink:href="#md195edd58c" x="131.211547" y="154.26369" style="fill: #ff7f0e; stroke: #ff7f0e"/>
     <use xlink:href="#md195edd58c" x="120.993233" y="45.467329" style="fill: #ff7f0e; stroke: #ff7f0e"/>
     <use xlink:href="#md195edd58c" x="120.893847" y="49.179725" style="fill: #ff7f0e; stroke: #ff7f0e"/>
     <use xlink:href="#md195edd58c" x="129.058893" y="54.265994" style="fill: #ff7f0e; stroke: #ff7f0e"/>
     <use xlink:href="#md195edd58c" x="119.932836" y="59.462474" style="fill: #ff7f0e; stroke: #ff7f0e"/>
     <use xlink:href="#md195edd58c" x="126.811482" y="58.114355" style="fill: #ff7f0e; stroke: #ff7f0e"/>
     <use xlink:href="#md195edd58c" x="127.552798" y="67.436917" style="fill: #ff7f0e; stroke: #ff7f0e"/>
     <use xlink:href="#md195edd58c" x="210.673212" y="59.369897" style="fill: #ff7f0e; stroke: #ff7f0e"/>
     <use xlink:href="#md195edd58c" x="188.954497" y="62.939083" style="fill: #ff7f0e; stroke: #ff7f0e"/>
     <use xlink:href="#md195edd58c" x="138.540998" y="52.069462" style="fill: #ff7f0e; stroke: #ff7f0e"/>
     <use xlink:href="#md195edd58c" x="368.671674" y="139.238039" style="fill: #ff7f0e; stroke: #ff7f0e"/>
     <use xlink:href="#md195edd58c" x="141.484552" y="69.547557" style="fill: #ff7f0e; stroke: #ff7f0e"/>
     <use xlink:href="#md195edd58c" x="184.647472" y="59.997223" style="fill: #ff7f0e; stroke: #ff7f0e"/>
     <use xlink:href="#md195edd58c" x="368.276263" y="135.582783" style="fill: #ff7f0e; stroke: #ff7f0e"/>
     <use xlink:href="#md195edd58c" x="124.222154" y="154.184428" style="fill: #ff7f0e; stroke: #ff7f0e"/>
     <use xlink:href="#md195edd58c" x="201.888574" y="88.690534" style="fill: #ff7f0e; stroke: #ff7f0e"/>
     <use xlink:href="#md195edd58c" x="236.383687" y="63.050059" style="fill: #ff7f0e; stroke: #ff7f0e"/>
     <use xlink:href="#md195edd58c" x="189.838425" y="67.339811" style="fill: #ff7f0e; stroke: #ff7f0e"/>
     <use xlink:href="#md195edd58c" x="151.049558" y="57.70392" style="fill: #ff7f0e; stroke: #ff7f0e"/>
     <use xlink:href="#md195edd58c" x="149.954993" y="49.598596" style="fill: #ff7f0e; stroke: #ff7f0e"/>
     <use xlink:href="#md195edd58c" x="184.787631" y="65.434519" style="fill: #ff7f0e; stroke: #ff7f0e"/>
     <use xlink:href="#md195edd58c" x="211.25478" y="89.866046" style="fill: #ff7f0e; stroke: #ff7f0e"/>
     <use xlink:href="#md195edd58c" x="120.707576" y="75.614817" style="fill: #ff7f0e; stroke: #ff7f0e"/>
     <use xlink:href="#md195edd58c" x="123.744505" y="62.726432" style="fill: #ff7f0e; stroke: #ff7f0e"/>
     <use xlink:href="#md195edd58c" x="117.295626" y="65.2102" style="fill: #ff7f0e; stroke: #ff7f0e"/>
     <use xlink:href="#md195edd58c" x="212.386361" y="86.00416" style="fill: #ff7f0e; stroke: #ff7f0e"/>
     <use xlink:href="#md195edd58c" x="194.530527" y="56.137727" style="fill: #ff7f0e; stroke: #ff7f0e"/>
     <use xlink:href="#md195edd58c" x="170.701726" y="66.995028" style="fill: #ff7f0e; stroke: #ff7f0e"/>
     <use xlink:href="#md195edd58c" x="157.465401" y="74.650136" style="fill: #ff7f0e; stroke: #ff7f0e"/>
     <use xlink:href="#md195edd58c" x="197.739375" y="80.79083" style="fill: #ff7f0e; stroke: #ff7f0e"/>
     <use xlink:href="#md195edd58c" x="166.852671" y="58.179883" style="fill: #ff7f0e; stroke: #ff7f0e"/>
     <use xlink:href="#md195edd58c" x="141.654269" y="72.118819" style="fill: #ff7f0e; stroke: #ff7f0e"/>
     <use xlink:href="#md195edd58c" x="163.864144" y="69.104049" style="fill: #ff7f0e; stroke: #ff7f0e"/>
     <use xlink:href="#md195edd58c" x="206.131578" y="78.310217" style="fill: #ff7f0e; stroke: #ff7f0e"/>
     <use xlink:href="#md195edd58c" x="125.218109" y="71.645324" style="fill: #ff7f0e; stroke: #ff7f0e"/>
     <use xlink:href="#md195edd58c" x="157.468943" y="66.043639" style="fill: #ff7f0e; stroke: #ff7f0e"/>
     <use xlink:href="#md195edd58c" x="195.918597" y="83.377031" style="fill: #ff7f0e; stroke: #ff7f0e"/>
     <use xlink:href="#md195edd58c" x="125.758308" y="75.959017" style="fill: #ff7f0e; stroke: #ff7f0e"/>
     <use xlink:href="#md195edd58c" x="137.736858" y="49.897042" style="fill: #ff7f0e; stroke: #ff7f0e"/>
    </g>
   </g>
   <g id="PathCollection_3">
    <defs>
     <path id="m9adbf86091" d="M 0 3 
C 0.795609 3 1.55874 2.683901 2.12132 2.12132 
C 2.683901 1.55874 3 0.795609 3 0 
C 3 -0.795609 2.683901 -1.55874 2.12132 -2.12132 
C 1.55874 -2.683901 0.795609 -3 0 -3 
C -0.795609 -3 -1.55874 -2.683901 -2.12132 -2.12132 
C -2.683901 -1.55874 -3 -0.795609 -3 0 
C -3 0.795609 -2.683901 1.55874 -2.12132 2.12132 
C -1.55874 2.683901 -0.795609 3 0 3 
z
" style="stroke: #2ca02c"/>
    </defs>
    <g clip-path="url(#p98715559fb)">
     <use xlink:href="#m9adbf86091" x="65.21554" y="279.042718" style="fill: #2ca02c; stroke: #2ca02c"/>
     <use xlink:href="#m9adbf86091" x="100.13734" y="247.366932" style="fill: #2ca02c; stroke: #2ca02c"/>
     <use xlink:href="#m9adbf86091" x="94.04828" y="240.345566" style="fill: #2ca02c; stroke: #2ca02c"/>
     <use xlink:href="#m9adbf86091" x="93.608442" y="233.492596" style="fill: #2ca02c; stroke: #2ca02c"/>
     <use xlink:href="#m9adbf86091" x="93.902358" y="264.442393" style="fill: #2ca02c; stroke: #2ca02c"/>
     <use xlink:href="#m9adbf86091" x="103.786575" y="188.165304" style="fill: #2ca02c; stroke: #2ca02c"/>
     <use xlink:href="#m9adbf86091" x="107.663988" y="197.521743" style="fill: #2ca02c; stroke: #2ca02c"/>
     <use xlink:href="#m9adbf86091" x="105.069757" y="193.14765" style="fill: #2ca02c; stroke: #2ca02c"/>
     <use xlink:href="#m9adbf86091" x="95.138858" y="199.340498" style="fill: #2ca02c; stroke: #2ca02c"/>
     <use xlink:href="#m9adbf86091" x="96.828164" y="193.823012" style="fill: #2ca02c; stroke: #2ca02c"/>
     <use xlink:href="#m9adbf86091" x="99.414948" y="197.59035" style="fill: #2ca02c; stroke: #2ca02c"/>
     <use xlink:href="#m9adbf86091" x="121.680663" y="159.229251" style="fill: #2ca02c; stroke: #2ca02c"/>
     <use xlink:href="#m9adbf86091" x="110.228722" y="187.532543" style="fill: #2ca02c; stroke: #2ca02c"/>
     <use xlink:href="#m9adbf86091" x="108.863114" y="217.173673" style="fill: #2ca02c; stroke: #2ca02c"/>
     <use xlink:href="#m9adbf86091" x="362.905124" y="133.019401" style="fill: #2ca02c; stroke: #2ca02c"/>
     <use xlink:href="#m9adbf86091" x="105.718044" y="207.907932" style="fill: #2ca02c; stroke: #2ca02c"/>
     <use xlink:href="#m9adbf86091" x="108.381854" y="230.020154" style="fill: #2ca02c; stroke: #2ca02c"/>
     <use xlink:href="#m9adbf86091" x="351.332588" y="134.081641" style="fill: #2ca02c; stroke: #2ca02c"/>
     <use xlink:href="#m9adbf86091" x="103.924063" y="232.662792" style="fill: #2ca02c; stroke: #2ca02c"/>
     <use xlink:href="#m9adbf86091" x="106.497134" y="241.730845" style="fill: #2ca02c; stroke: #2ca02c"/>
     <use xlink:href="#m9adbf86091" x="112.264381" y="75.223409" style="fill: #2ca02c; stroke: #2ca02c"/>
     <use xlink:href="#m9adbf86091" x="98.379097" y="188.27658" style="fill: #2ca02c; stroke: #2ca02c"/>
     <use xlink:href="#m9adbf86091" x="102.370099" y="203.470729" style="fill: #2ca02c; stroke: #2ca02c"/>
     <use xlink:href="#m9adbf86091" x="110.871943" y="204.933934" style="fill: #2ca02c; stroke: #2ca02c"/>
     <use xlink:href="#m9adbf86091" x="106.302919" y="223.722422" style="fill: #2ca02c; stroke: #2ca02c"/>
     <use xlink:href="#m9adbf86091" x="105.716426" y="237.150351" style="fill: #2ca02c; stroke: #2ca02c"/>
     <use xlink:href="#m9adbf86091" x="90.52811" y="262.095529" style="fill: #2ca02c; stroke: #2ca02c"/>
     <use xlink:href="#m9adbf86091" x="87.928371" y="264.316511" style="fill: #2ca02c; stroke: #2ca02c"/>
     <use xlink:href="#m9adbf86091" x="90.616576" y="265.677639" style="fill: #2ca02c; stroke: #2ca02c"/>
     <use xlink:href="#m9adbf86091" x="97.950918" y="236.691309" style="fill: #2ca02c; stroke: #2ca02c"/>
     <use xlink:href="#m9adbf86091" x="84.778029" y="229.441152" style="fill: #2ca02c; stroke: #2ca02c"/>
     <use xlink:href="#m9adbf86091" x="80.135068" y="229.464396" style="fill: #2ca02c; stroke: #2ca02c"/>
     <use xlink:href="#m9adbf86091" x="102.16565" y="227.435045" style="fill: #2ca02c; stroke: #2ca02c"/>
     <use xlink:href="#m9adbf86091" x="88.894053" y="233.955488" style="fill: #2ca02c; stroke: #2ca02c"/>
     <use xlink:href="#m9adbf86091" x="82.088611" y="233.630072" style="fill: #2ca02c; stroke: #2ca02c"/>
     <use xlink:href="#m9adbf86091" x="69.596614" y="275.571974" style="fill: #2ca02c; stroke: #2ca02c"/>
     <use xlink:href="#m9adbf86091" x="74.52874" y="231.315353" style="fill: #2ca02c; stroke: #2ca02c"/>
     <use xlink:href="#m9adbf86091" x="105.912756" y="182.60562" style="fill: #2ca02c; stroke: #2ca02c"/>
     <use xlink:href="#m9adbf86091" x="66.017171" y="275.738006" style="fill: #2ca02c; stroke: #2ca02c"/>
     <use xlink:href="#m9adbf86091" x="89.023664" y="207.319595" style="fill: #2ca02c; stroke: #2ca02c"/>
     <use xlink:href="#m9adbf86091" x="121.536614" y="156.669094" style="fill: #2ca02c; stroke: #2ca02c"/>
     <use xlink:href="#m9adbf86091" x="71.068061" y="278.735169" style="fill: #2ca02c; stroke: #2ca02c"/>
     <use xlink:href="#m9adbf86091" x="85.067049" y="207.001578" style="fill: #2ca02c; stroke: #2ca02c"/>
     <use xlink:href="#m9adbf86091" x="128.900622" y="149.924103" style="fill: #2ca02c; stroke: #2ca02c"/>
    </g>
   </g>
   <g id="PathCollection_4">
    <defs>
     <path id="m0d0a9d8bf2" d="M 0 3 
C 0.795609 3 1.55874 2.683901 2.12132 2.12132 
C 2.683901 1.55874 3 0.795609 3 0 
C 3 -0.795609 2.683901 -1.55874 2.12132 -2.12132 
C 1.55874 -2.683901 0.795609 -3 0 -3 
C -0.795609 -3 -1.55874 -2.683901 -2.12132 -2.12132 
C -2.683901 -1.55874 -3 -0.795609 -3 0 
C -3 0.795609 -2.683901 1.55874 -2.12132 2.12132 
C -1.55874 2.683901 -0.795609 3 0 3 
z
" style="stroke: #d62728"/>
    </defs>
    <g clip-path="url(#p98715559fb)">
     <use xlink:href="#m0d0a9d8bf2" x="179.246171" y="62.427177" style="fill: #d62728; stroke: #d62728"/>
     <use xlink:href="#m0d0a9d8bf2" x="211.322624" y="62.711351" style="fill: #d62728; stroke: #d62728"/>
     <use xlink:href="#m0d0a9d8bf2" x="196.365855" y="77.998422" style="fill: #d62728; stroke: #d62728"/>
     <use xlink:href="#m0d0a9d8bf2" x="122.002574" y="38.973187" style="fill: #d62728; stroke: #d62728"/>
     <use xlink:href="#m0d0a9d8bf2" x="345.782152" y="141.442367" style="fill: #d62728; stroke: #d62728"/>
     <use xlink:href="#m0d0a9d8bf2" x="253.427969" y="103.554708" style="fill: #d62728; stroke: #d62728"/>
    </g>
   </g>
   <g id="PathCollection_5">
    <defs>
     <path id="m74005c731b" d="M 0 3 
C 0.795609 3 1.55874 2.683901 2.12132 2.12132 
C 2.683901 1.55874 3 0.795609 3 0 
C 3 -0.795609 2.683901 -1.55874 2.12132 -2.12132 
C 1.55874 -2.683901 0.795609 -3 0 -3 
C -0.795609 -3 -1.55874 -2.683901 -2.12132 -2.12132 
C -2.683901 -1.55874 -3 -0.795609 -3 0 
C -3 0.795609 -2.683901 1.55874 -2.12132 2.12132 
C -1.55874 2.683901 -0.795609 3 0 3 
z
" style="stroke: #9467bd"/>
    </defs>
    <g clip-path="url(#p98715559fb)">
     <use xlink:href="#m74005c731b" x="246.642729" y="99.299993" style="fill: #9467bd; stroke: #9467bd"/>
     <use xlink:href="#m74005c731b" x="246.475759" y="101.674845" style="fill: #9467bd; stroke: #9467bd"/>
     <use xlink:href="#m74005c731b" x="203.423072" y="94.988441" style="fill: #9467bd; stroke: #9467bd"/>
     <use xlink:href="#m74005c731b" x="233.199612" y="90.261958" style="fill: #9467bd; stroke: #9467bd"/>
     <use xlink:href="#m74005c731b" x="234.718534" y="92.683999" style="fill: #9467bd; stroke: #9467bd"/>
     <use xlink:href="#m74005c731b" x="238.527894" y="93.603046" style="fill: #9467bd; stroke: #9467bd"/>
     <use xlink:href="#m74005c731b" x="132.147393" y="149.989979" style="fill: #9467bd; stroke: #9467bd"/>
     <use xlink:href="#m74005c731b" x="180.241743" y="57.88013" style="fill: #9467bd; stroke: #9467bd"/>
     <use xlink:href="#m74005c731b" x="189.375344" y="52.422143" style="fill: #9467bd; stroke: #9467bd"/>
     <use xlink:href="#m74005c731b" x="167.798506" y="61.354966" style="fill: #9467bd; stroke: #9467bd"/>
     <use xlink:href="#m74005c731b" x="68.334313" y="280.893187" style="fill: #9467bd; stroke: #9467bd"/>
     <use xlink:href="#m74005c731b" x="374.892896" y="161.456449" style="fill: #9467bd; stroke: #9467bd"/>
    </g>
   </g>
   <g id="patch_3">
    <path d="M 48.982813 292.989187 
L 48.982813 26.877187 
" style="fill: none; stroke: #ffffff; stroke-width: 0.8; stroke-linejoin: miter; stroke-linecap: square"/>
   </g>
   <g id="patch_4">
    <path d="M 406.102813 292.989187 
L 406.102813 26.877187 
" style="fill: none; stroke: #ffffff; stroke-width: 0.8; stroke-linejoin: miter; stroke-linecap: square"/>
   </g>
   <g id="patch_5">
    <path d="M 48.982812 292.989187 
L 406.102813 292.989187 
" style="fill: none; stroke: #ffffff; stroke-width: 0.8; stroke-linejoin: miter; stroke-linecap: square"/>
   </g>
   <g id="patch_6">
    <path d="M 48.982812 26.877187 
L 406.102813 26.877187 
" style="fill: none; stroke: #ffffff; stroke-width: 0.8; stroke-linejoin: miter; stroke-linecap: square"/>
   </g>
   <g id="text_18">
    <!-- OptimalClassifier -->
    <g style="fill: #262626" transform="translate(122.002574 38.973187) scale(0.1 -0.1)">
     <defs>
      <path id="DejaVuSans-4f" d="M 2522 4238 
Q 1834 4238 1429 3725 
Q 1025 3213 1025 2328 
Q 1025 1447 1429 934 
Q 1834 422 2522 422 
Q 3209 422 3611 934 
Q 4013 1447 4013 2328 
Q 4013 3213 3611 3725 
Q 3209 4238 2522 4238 
z
M 2522 4750 
Q 3503 4750 4090 4092 
Q 4678 3434 4678 2328 
Q 4678 1225 4090 567 
Q 3503 -91 2522 -91 
Q 1538 -91 948 565 
Q 359 1222 359 2328 
Q 359 3434 948 4092 
Q 1538 4750 2522 4750 
z
" transform="scale(0.015625)"/>
      <path id="DejaVuSans-70" d="M 1159 525 
L 1159 -1331 
L 581 -1331 
L 581 3500 
L 1159 3500 
L 1159 2969 
Q 1341 3281 1617 3432 
Q 1894 3584 2278 3584 
Q 2916 3584 3314 3078 
Q 3713 2572 3713 1747 
Q 3713 922 3314 415 
Q 2916 -91 2278 -91 
Q 1894 -91 1617 61 
Q 1341 213 1159 525 
z
M 3116 1747 
Q 3116 2381 2855 2742 
Q 2594 3103 2138 3103 
Q 1681 3103 1420 2742 
Q 1159 2381 1159 1747 
Q 1159 1113 1420 752 
Q 1681 391 2138 391 
Q 2594 391 2855 752 
Q 3116 1113 3116 1747 
z
" transform="scale(0.015625)"/>
      <path id="DejaVuSans-74" d="M 1172 4494 
L 1172 3500 
L 2356 3500 
L 2356 3053 
L 1172 3053 
L 1172 1153 
Q 1172 725 1289 603 
Q 1406 481 1766 481 
L 2356 481 
L 2356 0 
L 1766 0 
Q 1100 0 847 248 
Q 594 497 594 1153 
L 594 3053 
L 172 3053 
L 172 3500 
L 594 3500 
L 594 4494 
L 1172 4494 
z
" transform="scale(0.015625)"/>
      <path id="DejaVuSans-69" d="M 603 3500 
L 1178 3500 
L 1178 0 
L 603 0 
L 603 3500 
z
M 603 4863 
L 1178 4863 
L 1178 4134 
L 603 4134 
L 603 4863 
z
" transform="scale(0.015625)"/>
      <path id="DejaVuSans-6d" d="M 3328 2828 
Q 3544 3216 3844 3400 
Q 4144 3584 4550 3584 
Q 5097 3584 5394 3201 
Q 5691 2819 5691 2113 
L 5691 0 
L 5113 0 
L 5113 2094 
Q 5113 2597 4934 2840 
Q 4756 3084 4391 3084 
Q 3944 3084 3684 2787 
Q 3425 2491 3425 1978 
L 3425 0 
L 2847 0 
L 2847 2094 
Q 2847 2600 2669 2842 
Q 2491 3084 2119 3084 
Q 1678 3084 1418 2786 
Q 1159 2488 1159 1978 
L 1159 0 
L 581 0 
L 581 3500 
L 1159 3500 
L 1159 2956 
Q 1356 3278 1631 3431 
Q 1906 3584 2284 3584 
Q 2666 3584 2933 3390 
Q 3200 3197 3328 2828 
z
" transform="scale(0.015625)"/>
      <path id="DejaVuSans-61" d="M 2194 1759 
Q 1497 1759 1228 1600 
Q 959 1441 959 1056 
Q 959 750 1161 570 
Q 1363 391 1709 391 
Q 2188 391 2477 730 
Q 2766 1069 2766 1631 
L 2766 1759 
L 2194 1759 
z
M 3341 1997 
L 3341 0 
L 2766 0 
L 2766 531 
Q 2569 213 2275 61 
Q 1981 -91 1556 -91 
Q 1019 -91 701 211 
Q 384 513 384 1019 
Q 384 1609 779 1909 
Q 1175 2209 1959 2209 
L 2766 2209 
L 2766 2266 
Q 2766 2663 2505 2880 
Q 2244 3097 1772 3097 
Q 1472 3097 1187 3025 
Q 903 2953 641 2809 
L 641 3341 
Q 956 3463 1253 3523 
Q 1550 3584 1831 3584 
Q 2591 3584 2966 3190 
Q 3341 2797 3341 1997 
z
" transform="scale(0.015625)"/>
      <path id="DejaVuSans-6c" d="M 603 4863 
L 1178 4863 
L 1178 0 
L 603 0 
L 603 4863 
z
" transform="scale(0.015625)"/>
      <path id="DejaVuSans-43" d="M 4122 4306 
L 4122 3641 
Q 3803 3938 3442 4084 
Q 3081 4231 2675 4231 
Q 1875 4231 1450 3742 
Q 1025 3253 1025 2328 
Q 1025 1406 1450 917 
Q 1875 428 2675 428 
Q 3081 428 3442 575 
Q 3803 722 4122 1019 
L 4122 359 
Q 3791 134 3420 21 
Q 3050 -91 2638 -91 
Q 1578 -91 968 557 
Q 359 1206 359 2328 
Q 359 3453 968 4101 
Q 1578 4750 2638 4750 
Q 3056 4750 3426 4639 
Q 3797 4528 4122 4306 
z
" transform="scale(0.015625)"/>
      <path id="DejaVuSans-73" d="M 2834 3397 
L 2834 2853 
Q 2591 2978 2328 3040 
Q 2066 3103 1784 3103 
Q 1356 3103 1142 2972 
Q 928 2841 928 2578 
Q 928 2378 1081 2264 
Q 1234 2150 1697 2047 
L 1894 2003 
Q 2506 1872 2764 1633 
Q 3022 1394 3022 966 
Q 3022 478 2636 193 
Q 2250 -91 1575 -91 
Q 1294 -91 989 -36 
Q 684 19 347 128 
L 347 722 
Q 666 556 975 473 
Q 1284 391 1588 391 
Q 1994 391 2212 530 
Q 2431 669 2431 922 
Q 2431 1156 2273 1281 
Q 2116 1406 1581 1522 
L 1381 1569 
Q 847 1681 609 1914 
Q 372 2147 372 2553 
Q 372 3047 722 3315 
Q 1072 3584 1716 3584 
Q 2034 3584 2315 3537 
Q 2597 3491 2834 3397 
z
" transform="scale(0.015625)"/>
      <path id="DejaVuSans-66" d="M 2375 4863 
L 2375 4384 
L 1825 4384 
Q 1516 4384 1395 4259 
Q 1275 4134 1275 3809 
L 1275 3500 
L 2222 3500 
L 2222 3053 
L 1275 3053 
L 1275 0 
L 697 0 
L 697 3053 
L 147 3053 
L 147 3500 
L 697 3500 
L 697 3744 
Q 697 4328 969 4595 
Q 1241 4863 1831 4863 
L 2375 4863 
z
" transform="scale(0.015625)"/>
      <path id="DejaVuSans-65" d="M 3597 1894 
L 3597 1613 
L 953 1613 
Q 991 1019 1311 708 
Q 1631 397 2203 397 
Q 2534 397 2845 478 
Q 3156 559 3463 722 
L 3463 178 
Q 3153 47 2828 -22 
Q 2503 -91 2169 -91 
Q 1331 -91 842 396 
Q 353 884 353 1716 
Q 353 2575 817 3079 
Q 1281 3584 2069 3584 
Q 2775 3584 3186 3129 
Q 3597 2675 3597 1894 
z
M 3022 2063 
Q 3016 2534 2758 2815 
Q 2500 3097 2075 3097 
Q 1594 3097 1305 2825 
Q 1016 2553 972 2059 
L 3022 2063 
z
" transform="scale(0.015625)"/>
      <path id="DejaVuSans-72" d="M 2631 2963 
Q 2534 3019 2420 3045 
Q 2306 3072 2169 3072 
Q 1681 3072 1420 2755 
Q 1159 2438 1159 1844 
L 1159 0 
L 581 0 
L 581 3500 
L 1159 3500 
L 1159 2956 
Q 1341 3275 1631 3429 
Q 1922 3584 2338 3584 
Q 2397 3584 2469 3576 
Q 2541 3569 2628 3553 
L 2631 2963 
z
" transform="scale(0.015625)"/>
     </defs>
     <use xlink:href="#DejaVuSans-4f"/>
     <use xlink:href="#DejaVuSans-70" x="78.710938"/>
     <use xlink:href="#DejaVuSans-74" x="142.1875"/>
     <use xlink:href="#DejaVuSans-69" x="181.396484"/>
     <use xlink:href="#DejaVuSans-6d" x="209.179688"/>
     <use xlink:href="#DejaVuSans-61" x="306.591797"/>
     <use xlink:href="#DejaVuSans-6c" x="367.871094"/>
     <use xlink:href="#DejaVuSans-43" x="395.654297"/>
     <use xlink:href="#DejaVuSans-6c" x="465.478516"/>
     <use xlink:href="#DejaVuSans-61" x="493.261719"/>
     <use xlink:href="#DejaVuSans-73" x="554.541016"/>
     <use xlink:href="#DejaVuSans-73" x="606.640625"/>
     <use xlink:href="#DejaVuSans-69" x="658.740234"/>
     <use xlink:href="#DejaVuSans-66" x="686.523438"/>
     <use xlink:href="#DejaVuSans-69" x="721.728516"/>
     <use xlink:href="#DejaVuSans-65" x="749.511719"/>
     <use xlink:href="#DejaVuSans-72" x="811.035156"/>
    </g>
   </g>
   <g id="text_19">
    <!-- PessimalClassifier -->
    <g style="fill: #262626" transform="translate(314.013571 153.314718) scale(0.1 -0.1)">
     <defs>
      <path id="DejaVuSans-50" d="M 1259 4147 
L 1259 2394 
L 2053 2394 
Q 2494 2394 2734 2622 
Q 2975 2850 2975 3272 
Q 2975 3691 2734 3919 
Q 2494 4147 2053 4147 
L 1259 4147 
z
M 628 4666 
L 2053 4666 
Q 2838 4666 3239 4311 
Q 3641 3956 3641 3272 
Q 3641 2581 3239 2228 
Q 2838 1875 2053 1875 
L 1259 1875 
L 1259 0 
L 628 0 
L 628 4666 
z
" transform="scale(0.015625)"/>
     </defs>
     <use xlink:href="#DejaVuSans-50"/>
     <use xlink:href="#DejaVuSans-65" x="56.677734"/>
     <use xlink:href="#DejaVuSans-73" x="118.201172"/>
     <use xlink:href="#DejaVuSans-73" x="170.300781"/>
     <use xlink:href="#DejaVuSans-69" x="222.400391"/>
     <use xlink:href="#DejaVuSans-6d" x="250.183594"/>
     <use xlink:href="#DejaVuSans-61" x="347.595703"/>
     <use xlink:href="#DejaVuSans-6c" x="408.875"/>
     <use xlink:href="#DejaVuSans-43" x="436.658203"/>
     <use xlink:href="#DejaVuSans-6c" x="506.482422"/>
     <use xlink:href="#DejaVuSans-61" x="534.265625"/>
     <use xlink:href="#DejaVuSans-73" x="595.544922"/>
     <use xlink:href="#DejaVuSans-73" x="647.644531"/>
     <use xlink:href="#DejaVuSans-69" x="699.744141"/>
     <use xlink:href="#DejaVuSans-66" x="727.527344"/>
     <use xlink:href="#DejaVuSans-69" x="762.732422"/>
     <use xlink:href="#DejaVuSans-65" x="790.515625"/>
     <use xlink:href="#DejaVuSans-72" x="852.039062"/>
    </g>
   </g>
   <g id="text_20">
    <!-- LGBM -->
    <g style="fill: #262626" transform="translate(196.365855 77.998422) scale(0.1 -0.1)">
     <defs>
      <path id="DejaVuSans-4c" d="M 628 4666 
L 1259 4666 
L 1259 531 
L 3531 531 
L 3531 0 
L 628 0 
L 628 4666 
z
" transform="scale(0.015625)"/>
      <path id="DejaVuSans-47" d="M 3809 666 
L 3809 1919 
L 2778 1919 
L 2778 2438 
L 4434 2438 
L 4434 434 
Q 4069 175 3628 42 
Q 3188 -91 2688 -91 
Q 1594 -91 976 548 
Q 359 1188 359 2328 
Q 359 3472 976 4111 
Q 1594 4750 2688 4750 
Q 3144 4750 3555 4637 
Q 3966 4525 4313 4306 
L 4313 3634 
Q 3963 3931 3569 4081 
Q 3175 4231 2741 4231 
Q 1884 4231 1454 3753 
Q 1025 3275 1025 2328 
Q 1025 1384 1454 906 
Q 1884 428 2741 428 
Q 3075 428 3337 486 
Q 3600 544 3809 666 
z
" transform="scale(0.015625)"/>
      <path id="DejaVuSans-42" d="M 1259 2228 
L 1259 519 
L 2272 519 
Q 2781 519 3026 730 
Q 3272 941 3272 1375 
Q 3272 1813 3026 2020 
Q 2781 2228 2272 2228 
L 1259 2228 
z
M 1259 4147 
L 1259 2741 
L 2194 2741 
Q 2656 2741 2882 2914 
Q 3109 3088 3109 3444 
Q 3109 3797 2882 3972 
Q 2656 4147 2194 4147 
L 1259 4147 
z
M 628 4666 
L 2241 4666 
Q 2963 4666 3353 4366 
Q 3744 4066 3744 3513 
Q 3744 3084 3544 2831 
Q 3344 2578 2956 2516 
Q 3422 2416 3680 2098 
Q 3938 1781 3938 1306 
Q 3938 681 3513 340 
Q 3088 0 2303 0 
L 628 0 
L 628 4666 
z
" transform="scale(0.015625)"/>
      <path id="DejaVuSans-4d" d="M 628 4666 
L 1569 4666 
L 2759 1491 
L 3956 4666 
L 4897 4666 
L 4897 0 
L 4281 0 
L 4281 4097 
L 3078 897 
L 2444 897 
L 1241 4097 
L 1241 0 
L 628 0 
L 628 4666 
z
" transform="scale(0.015625)"/>
     </defs>
     <use xlink:href="#DejaVuSans-4c"/>
     <use xlink:href="#DejaVuSans-47" x="55.712891"/>
     <use xlink:href="#DejaVuSans-42" x="133.203125"/>
     <use xlink:href="#DejaVuSans-4d" x="201.806641"/>
    </g>
   </g>
   <g id="text_21">
    <!-- KNN -->
    <g style="fill: #262626" transform="translate(211.322624 62.711351) scale(0.1 -0.1)">
     <defs>
      <path id="DejaVuSans-4b" d="M 628 4666 
L 1259 4666 
L 1259 2694 
L 3353 4666 
L 4166 4666 
L 1850 2491 
L 4331 0 
L 3500 0 
L 1259 2247 
L 1259 0 
L 628 0 
L 628 4666 
z
" transform="scale(0.015625)"/>
      <path id="DejaVuSans-4e" d="M 628 4666 
L 1478 4666 
L 3547 763 
L 3547 4666 
L 4159 4666 
L 4159 0 
L 3309 0 
L 1241 3903 
L 1241 0 
L 628 0 
L 628 4666 
z
" transform="scale(0.015625)"/>
     </defs>
     <use xlink:href="#DejaVuSans-4b"/>
     <use xlink:href="#DejaVuSans-4e" x="65.576172"/>
     <use xlink:href="#DejaVuSans-4e" x="140.380859"/>
    </g>
   </g>
   <g id="text_22">
    <!-- NaiveBayes -->
    <g style="fill: #262626" transform="translate(179.246171 62.427177) scale(0.1 -0.1)">
     <defs>
      <path id="DejaVuSans-76" d="M 191 3500 
L 800 3500 
L 1894 563 
L 2988 3500 
L 3597 3500 
L 2284 0 
L 1503 0 
L 191 3500 
z
" transform="scale(0.015625)"/>
     </defs>
     <use xlink:href="#DejaVuSans-4e"/>
     <use xlink:href="#DejaVuSans-61" x="74.804688"/>
     <use xlink:href="#DejaVuSans-69" x="136.083984"/>
     <use xlink:href="#DejaVuSans-76" x="163.867188"/>
     <use xlink:href="#DejaVuSans-65" x="223.046875"/>
     <use xlink:href="#DejaVuSans-42" x="284.570312"/>
     <use xlink:href="#DejaVuSans-61" x="353.173828"/>
     <use xlink:href="#DejaVuSans-79" x="414.453125"/>
     <use xlink:href="#DejaVuSans-65" x="473.632812"/>
     <use xlink:href="#DejaVuSans-73" x="535.15625"/>
    </g>
   </g>
   <g id="text_23">
    <!-- Random -->
    <g style="fill: #262626" transform="translate(253.427969 103.554708) scale(0.1 -0.1)">
     <defs>
      <path id="DejaVuSans-52" d="M 2841 2188 
Q 3044 2119 3236 1894 
Q 3428 1669 3622 1275 
L 4263 0 
L 3584 0 
L 2988 1197 
Q 2756 1666 2539 1819 
Q 2322 1972 1947 1972 
L 1259 1972 
L 1259 0 
L 628 0 
L 628 4666 
L 2053 4666 
Q 2853 4666 3247 4331 
Q 3641 3997 3641 3322 
Q 3641 2881 3436 2590 
Q 3231 2300 2841 2188 
z
M 1259 4147 
L 1259 2491 
L 2053 2491 
Q 2509 2491 2742 2702 
Q 2975 2913 2975 3322 
Q 2975 3731 2742 3939 
Q 2509 4147 2053 4147 
L 1259 4147 
z
" transform="scale(0.015625)"/>
      <path id="DejaVuSans-6e" d="M 3513 2113 
L 3513 0 
L 2938 0 
L 2938 2094 
Q 2938 2591 2744 2837 
Q 2550 3084 2163 3084 
Q 1697 3084 1428 2787 
Q 1159 2491 1159 1978 
L 1159 0 
L 581 0 
L 581 3500 
L 1159 3500 
L 1159 2956 
Q 1366 3272 1645 3428 
Q 1925 3584 2291 3584 
Q 2894 3584 3203 3211 
Q 3513 2838 3513 2113 
z
" transform="scale(0.015625)"/>
      <path id="DejaVuSans-64" d="M 2906 2969 
L 2906 4863 
L 3481 4863 
L 3481 0 
L 2906 0 
L 2906 525 
Q 2725 213 2448 61 
Q 2172 -91 1784 -91 
Q 1150 -91 751 415 
Q 353 922 353 1747 
Q 353 2572 751 3078 
Q 1150 3584 1784 3584 
Q 2172 3584 2448 3432 
Q 2725 3281 2906 2969 
z
M 947 1747 
Q 947 1113 1208 752 
Q 1469 391 1925 391 
Q 2381 391 2643 752 
Q 2906 1113 2906 1747 
Q 2906 2381 2643 2742 
Q 2381 3103 1925 3103 
Q 1469 3103 1208 2742 
Q 947 2381 947 1747 
z
" transform="scale(0.015625)"/>
      <path id="DejaVuSans-6f" d="M 1959 3097 
Q 1497 3097 1228 2736 
Q 959 2375 959 1747 
Q 959 1119 1226 758 
Q 1494 397 1959 397 
Q 2419 397 2687 759 
Q 2956 1122 2956 1747 
Q 2956 2369 2687 2733 
Q 2419 3097 1959 3097 
z
M 1959 3584 
Q 2709 3584 3137 3096 
Q 3566 2609 3566 1747 
Q 3566 888 3137 398 
Q 2709 -91 1959 -91 
Q 1206 -91 779 398 
Q 353 888 353 1747 
Q 353 2609 779 3096 
Q 1206 3584 1959 3584 
z
" transform="scale(0.015625)"/>
     </defs>
     <use xlink:href="#DejaVuSans-52"/>
     <use xlink:href="#DejaVuSans-61" x="67.232422"/>
     <use xlink:href="#DejaVuSans-6e" x="128.511719"/>
     <use xlink:href="#DejaVuSans-64" x="191.890625"/>
     <use xlink:href="#DejaVuSans-6f" x="255.367188"/>
     <use xlink:href="#DejaVuSans-6d" x="316.548828"/>
    </g>
   </g>
   <g id="text_24">
    <!-- Mastery level TSNE -->
    <g style="fill: #262626" transform="translate(140.726563 20.877187) scale(0.18 -0.18)">
     <defs>
      <path id="DejaVuSans-20" transform="scale(0.015625)"/>
      <path id="DejaVuSans-54" d="M -19 4666 
L 3928 4666 
L 3928 4134 
L 2272 4134 
L 2272 0 
L 1638 0 
L 1638 4134 
L -19 4134 
L -19 4666 
z
" transform="scale(0.015625)"/>
      <path id="DejaVuSans-53" d="M 3425 4513 
L 3425 3897 
Q 3066 4069 2747 4153 
Q 2428 4238 2131 4238 
Q 1616 4238 1336 4038 
Q 1056 3838 1056 3469 
Q 1056 3159 1242 3001 
Q 1428 2844 1947 2747 
L 2328 2669 
Q 3034 2534 3370 2195 
Q 3706 1856 3706 1288 
Q 3706 609 3251 259 
Q 2797 -91 1919 -91 
Q 1588 -91 1214 -16 
Q 841 59 441 206 
L 441 856 
Q 825 641 1194 531 
Q 1563 422 1919 422 
Q 2459 422 2753 634 
Q 3047 847 3047 1241 
Q 3047 1584 2836 1778 
Q 2625 1972 2144 2069 
L 1759 2144 
Q 1053 2284 737 2584 
Q 422 2884 422 3419 
Q 422 4038 858 4394 
Q 1294 4750 2059 4750 
Q 2388 4750 2728 4690 
Q 3069 4631 3425 4513 
z
" transform="scale(0.015625)"/>
      <path id="DejaVuSans-45" d="M 628 4666 
L 3578 4666 
L 3578 4134 
L 1259 4134 
L 1259 2753 
L 3481 2753 
L 3481 2222 
L 1259 2222 
L 1259 531 
L 3634 531 
L 3634 0 
L 628 0 
L 628 4666 
z
" transform="scale(0.015625)"/>
     </defs>
     <use xlink:href="#DejaVuSans-4d"/>
     <use xlink:href="#DejaVuSans-61" x="86.279297"/>
     <use xlink:href="#DejaVuSans-73" x="147.558594"/>
     <use xlink:href="#DejaVuSans-74" x="199.658203"/>
     <use xlink:href="#DejaVuSans-65" x="238.867188"/>
     <use xlink:href="#DejaVuSans-72" x="300.390625"/>
     <use xlink:href="#DejaVuSans-79" x="341.503906"/>
     <use xlink:href="#DejaVuSans-20" x="400.683594"/>
     <use xlink:href="#DejaVuSans-6c" x="432.470703"/>
     <use xlink:href="#DejaVuSans-65" x="460.253906"/>
     <use xlink:href="#DejaVuSans-76" x="521.777344"/>
     <use xlink:href="#DejaVuSans-65" x="580.957031"/>
     <use xlink:href="#DejaVuSans-6c" x="642.480469"/>
     <use xlink:href="#DejaVuSans-20" x="670.263672"/>
     <use xlink:href="#DejaVuSans-54" x="702.050781"/>
     <use xlink:href="#DejaVuSans-53" x="763.134766"/>
     <use xlink:href="#DejaVuSans-4e" x="826.611328"/>
     <use xlink:href="#DejaVuSans-45" x="901.416016"/>
    </g>
   </g>
   <g id="legend_1">
    <g id="patch_7">
     <path d="M 295.730938 287.989187 
L 399.102813 287.989187 
Q 401.102813 287.989187 401.102813 285.989187 
L 401.102813 213.598562 
Q 401.102813 211.598562 399.102813 211.598562 
L 295.730938 211.598562 
Q 293.730938 211.598562 293.730938 213.598562 
L 293.730938 285.989187 
Q 293.730938 287.989187 295.730938 287.989187 
z
" style="fill: #eaeaf2; opacity: 0.8; stroke: #cccccc; stroke-linejoin: miter"/>
    </g>
    <g id="PathCollection_6">
     <g>
      <use xlink:href="#m25a958d5ad" x="307.730938" y="220.572" style="fill: #1f77b4; stroke: #1f77b4"/>
     </g>
    </g>
    <g id="text_25">
     <!-- threshold=0.2 -->
     <g style="fill: #262626" transform="translate(325.730938 223.197) scale(0.1 -0.1)">
      <defs>
       <path id="DejaVuSans-68" d="M 3513 2113 
L 3513 0 
L 2938 0 
L 2938 2094 
Q 2938 2591 2744 2837 
Q 2550 3084 2163 3084 
Q 1697 3084 1428 2787 
Q 1159 2491 1159 1978 
L 1159 0 
L 581 0 
L 581 4863 
L 1159 4863 
L 1159 2956 
Q 1366 3272 1645 3428 
Q 1925 3584 2291 3584 
Q 2894 3584 3203 3211 
Q 3513 2838 3513 2113 
z
" transform="scale(0.015625)"/>
       <path id="DejaVuSans-3d" d="M 678 2906 
L 4684 2906 
L 4684 2381 
L 678 2381 
L 678 2906 
z
M 678 1631 
L 4684 1631 
L 4684 1100 
L 678 1100 
L 678 1631 
z
" transform="scale(0.015625)"/>
       <path id="DejaVuSans-2e" d="M 684 794 
L 1344 794 
L 1344 0 
L 684 0 
L 684 794 
z
" transform="scale(0.015625)"/>
      </defs>
      <use xlink:href="#DejaVuSans-74"/>
      <use xlink:href="#DejaVuSans-68" x="39.208984"/>
      <use xlink:href="#DejaVuSans-72" x="102.587891"/>
      <use xlink:href="#DejaVuSans-65" x="141.451172"/>
      <use xlink:href="#DejaVuSans-73" x="202.974609"/>
      <use xlink:href="#DejaVuSans-68" x="255.074219"/>
      <use xlink:href="#DejaVuSans-6f" x="318.453125"/>
      <use xlink:href="#DejaVuSans-6c" x="379.634766"/>
      <use xlink:href="#DejaVuSans-64" x="407.417969"/>
      <use xlink:href="#DejaVuSans-3d" x="470.894531"/>
      <use xlink:href="#DejaVuSans-30" x="554.683594"/>
      <use xlink:href="#DejaVuSans-2e" x="618.306641"/>
      <use xlink:href="#DejaVuSans-32" x="650.09375"/>
     </g>
    </g>
    <g id="PathCollection_7">
     <g>
      <use xlink:href="#md195edd58c" x="307.730938" y="235.250125" style="fill: #ff7f0e; stroke: #ff7f0e"/>
     </g>
    </g>
    <g id="text_26">
     <!-- threshold=0.5 -->
     <g style="fill: #262626" transform="translate(325.730938 237.875125) scale(0.1 -0.1)">
      <use xlink:href="#DejaVuSans-74"/>
      <use xlink:href="#DejaVuSans-68" x="39.208984"/>
      <use xlink:href="#DejaVuSans-72" x="102.587891"/>
      <use xlink:href="#DejaVuSans-65" x="141.451172"/>
      <use xlink:href="#DejaVuSans-73" x="202.974609"/>
      <use xlink:href="#DejaVuSans-68" x="255.074219"/>
      <use xlink:href="#DejaVuSans-6f" x="318.453125"/>
      <use xlink:href="#DejaVuSans-6c" x="379.634766"/>
      <use xlink:href="#DejaVuSans-64" x="407.417969"/>
      <use xlink:href="#DejaVuSans-3d" x="470.894531"/>
      <use xlink:href="#DejaVuSans-30" x="554.683594"/>
      <use xlink:href="#DejaVuSans-2e" x="618.306641"/>
      <use xlink:href="#DejaVuSans-35" x="650.09375"/>
     </g>
    </g>
    <g id="PathCollection_8">
     <g>
      <use xlink:href="#m9adbf86091" x="307.730938" y="249.92825" style="fill: #2ca02c; stroke: #2ca02c"/>
     </g>
    </g>
    <g id="text_27">
     <!-- threshold=0.8 -->
     <g style="fill: #262626" transform="translate(325.730938 252.55325) scale(0.1 -0.1)">
      <defs>
       <path id="DejaVuSans-38" d="M 2034 2216 
Q 1584 2216 1326 1975 
Q 1069 1734 1069 1313 
Q 1069 891 1326 650 
Q 1584 409 2034 409 
Q 2484 409 2743 651 
Q 3003 894 3003 1313 
Q 3003 1734 2745 1975 
Q 2488 2216 2034 2216 
z
M 1403 2484 
Q 997 2584 770 2862 
Q 544 3141 544 3541 
Q 544 4100 942 4425 
Q 1341 4750 2034 4750 
Q 2731 4750 3128 4425 
Q 3525 4100 3525 3541 
Q 3525 3141 3298 2862 
Q 3072 2584 2669 2484 
Q 3125 2378 3379 2068 
Q 3634 1759 3634 1313 
Q 3634 634 3220 271 
Q 2806 -91 2034 -91 
Q 1263 -91 848 271 
Q 434 634 434 1313 
Q 434 1759 690 2068 
Q 947 2378 1403 2484 
z
M 1172 3481 
Q 1172 3119 1398 2916 
Q 1625 2713 2034 2713 
Q 2441 2713 2670 2916 
Q 2900 3119 2900 3481 
Q 2900 3844 2670 4047 
Q 2441 4250 2034 4250 
Q 1625 4250 1398 4047 
Q 1172 3844 1172 3481 
z
" transform="scale(0.015625)"/>
      </defs>
      <use xlink:href="#DejaVuSans-74"/>
      <use xlink:href="#DejaVuSans-68" x="39.208984"/>
      <use xlink:href="#DejaVuSans-72" x="102.587891"/>
      <use xlink:href="#DejaVuSans-65" x="141.451172"/>
      <use xlink:href="#DejaVuSans-73" x="202.974609"/>
      <use xlink:href="#DejaVuSans-68" x="255.074219"/>
      <use xlink:href="#DejaVuSans-6f" x="318.453125"/>
      <use xlink:href="#DejaVuSans-6c" x="379.634766"/>
      <use xlink:href="#DejaVuSans-64" x="407.417969"/>
      <use xlink:href="#DejaVuSans-3d" x="470.894531"/>
      <use xlink:href="#DejaVuSans-30" x="554.683594"/>
      <use xlink:href="#DejaVuSans-2e" x="618.306641"/>
      <use xlink:href="#DejaVuSans-38" x="650.09375"/>
     </g>
    </g>
    <g id="PathCollection_9">
     <g>
      <use xlink:href="#m0d0a9d8bf2" x="307.730938" y="264.606375" style="fill: #d62728; stroke: #d62728"/>
     </g>
    </g>
    <g id="text_28">
     <!-- annotated -->
     <g style="fill: #262626" transform="translate(325.730938 267.231375) scale(0.1 -0.1)">
      <use xlink:href="#DejaVuSans-61"/>
      <use xlink:href="#DejaVuSans-6e" x="61.279297"/>
      <use xlink:href="#DejaVuSans-6e" x="124.658203"/>
      <use xlink:href="#DejaVuSans-6f" x="188.037109"/>
      <use xlink:href="#DejaVuSans-74" x="249.21875"/>
      <use xlink:href="#DejaVuSans-61" x="288.427734"/>
      <use xlink:href="#DejaVuSans-74" x="349.707031"/>
      <use xlink:href="#DejaVuSans-65" x="388.916016"/>
      <use xlink:href="#DejaVuSans-64" x="450.439453"/>
     </g>
    </g>
    <g id="PathCollection_10">
     <g>
      <use xlink:href="#m74005c731b" x="307.730938" y="279.2845" style="fill: #9467bd; stroke: #9467bd"/>
     </g>
    </g>
    <g id="text_29">
     <!-- other -->
     <g style="fill: #262626" transform="translate(325.730938 281.9095) scale(0.1 -0.1)">
      <use xlink:href="#DejaVuSans-6f"/>
      <use xlink:href="#DejaVuSans-74" x="61.181641"/>
      <use xlink:href="#DejaVuSans-68" x="100.390625"/>
      <use xlink:href="#DejaVuSans-65" x="163.769531"/>
      <use xlink:href="#DejaVuSans-72" x="225.292969"/>
     </g>
    </g>
   </g>
  </g>
 </g>
 <defs>
  <clipPath id="p98715559fb">
   <rect x="48.982813" y="26.877187" width="357.12" height="266.112"/>
  </clipPath>
 </defs>
</svg>
